<?xml version="1.0" encoding="UTF-8"?>
<svg id="Capa_1" xmlns="http://www.w3.org/2000/svg" xmlns:xlink="http://www.w3.org/1999/xlink" version="1.1" viewBox="0 0 1000 330.95">
  <!-- Generator: Adobe Illustrator 30.4.0, SVG Export Plug-In . SVG Version: 2.1.4 Build 226)  -->
  <defs>
    <style>
      .st0 {
        fill: #b4b8d0;
        font-family: JetBrainsMono-ExtraBold, 'JetBrains Mono';
        font-size: 27.38px;
        font-weight: 700;
        letter-spacing: .22em;
      }

      .st1 {
        fill: none;
        stroke: url(#Degradado_sin_nombre_861);
        stroke-miterlimit: 10;
        stroke-width: 3.08px;
      }

      .st2 {
        fill: url(#Degradado_sin_nombre_86);
      }

      .st3 {
        fill: #ededed;
      }
    </style>
    <linearGradient id="Degradado_sin_nombre_86" data-name="Degradado sin nombre 86" x1="61.33" y1="15.06" x2="271.04" y2="342.84" gradientUnits="userSpaceOnUse">
      <stop offset="0" stop-color="#8f26fb"/>
      <stop offset=".17" stop-color="#8c27fa"/>
      <stop offset=".28" stop-color="#832cfa"/>
      <stop offset=".38" stop-color="#7335fa"/>
      <stop offset=".47" stop-color="#5e42fa"/>
      <stop offset=".56" stop-color="#4252fa"/>
      <stop offset=".58" stop-color="#3958fa"/>
      <stop offset=".98" stop-color="#3958fa"/>
    </linearGradient>
    <linearGradient id="Degradado_sin_nombre_861" data-name="Degradado sin nombre 86" x1="308.63" y1="232.59" x2="391.76" y2="232.59" xlink:href="#Degradado_sin_nombre_86"/>
  </defs>
  <path class="st2" d="M138.34,196.79l-50.91-.83c-1.38-12.58-.65-24.43-.45-38.71,21.24-.57,41.75-.63,63.38-.12,13.73.33,24.7-8.58,25.65-21.87.91-12.79-9.63-24.52-23.84-24.62l-65.37-.44.21-38.56,63.25-.26c29.9-.12,55.35,18.57,62.78,45.71,8.03,29.33-5.34,58.93-32.84,72.9l40.71,68.55c-14.63,1.9-28.9.43-44.9.85l-37.65-62.63Z"/>
  <text class="st0" transform="translate(409.47 241.22) scale(1.05 1)"><tspan x="0" y="0">WHOLESALER</tspan></text>
  <line class="st1" x1="308.63" y1="232.59" x2="391.76" y2="232.59"/>
  <g>
    <path class="st3" d="M311.7,191.28v-82.1h35.66c5.16,0,9.66.9,13.49,2.7,3.83,1.8,6.8,4.34,8.91,7.62,2.11,3.28,3.17,7.16,3.17,11.61v1.41c0,4.92-1.18,8.91-3.52,11.96-2.35,3.05-5.24,5.28-8.68,6.69v2.11c3.13.16,5.56,1.23,7.28,3.22,1.71,2,2.58,4.63,2.58,7.92v26.86h-15.48v-24.63c0-1.88-.49-3.4-1.47-4.57-.98-1.17-2.6-1.76-4.87-1.76h-21.58v30.96h-15.48ZM327.18,146.24h18.53c3.68,0,6.55-1,8.62-2.99,2.07-1.99,3.11-4.63,3.11-7.92v-1.17c0-3.28-1.02-5.92-3.05-7.92-2.03-1.99-4.93-2.99-8.68-2.99h-18.53v22.99Z"/>
    <path class="st3" d="M412.81,192.92c-5.79,0-10.89-1.23-15.31-3.7-4.42-2.46-7.86-5.94-10.33-10.44-2.46-4.5-3.69-9.79-3.69-15.89v-1.41c0-6.1,1.21-11.39,3.64-15.89,2.42-4.5,5.82-7.97,10.2-10.44,4.38-2.46,9.46-3.7,15.25-3.7s10.67,1.27,14.9,3.81c4.22,2.54,7.51,6.06,9.85,10.55,2.35,4.5,3.52,9.72,3.52,15.66v5.05h-42.34c.16,3.99,1.64,7.23,4.46,9.73,2.81,2.51,6.26,3.76,10.32,3.76s7.2-.9,9.15-2.7c1.96-1.8,3.44-3.79,4.46-5.98l12.08,6.33c-1.09,2.03-2.67,4.24-4.75,6.62-2.08,2.39-4.83,4.42-8.27,6.1-3.44,1.68-7.82,2.52-13.13,2.52ZM398.61,155.51h27.21c-.31-3.36-1.67-6.06-4.05-8.09-2.39-2.03-5.49-3.05-9.33-3.05s-7.16,1.02-9.5,3.05c-2.35,2.03-3.79,4.73-4.34,8.09Z"/>
    <path class="st3" d="M453.98,191.28v-58.18h14.54v7.62h2.11c.94-2.03,2.7-3.97,5.28-5.81,2.58-1.84,6.49-2.76,11.73-2.76,4.53,0,8.5,1.04,11.9,3.11s6.04,4.92,7.92,8.56c1.88,3.64,2.81,7.88,2.81,12.73v34.72h-14.78v-33.55c0-4.38-1.07-7.66-3.22-9.85-2.16-2.19-5.22-3.28-9.21-3.28-4.53,0-8.06,1.51-10.55,4.52-2.51,3.01-3.76,7.21-3.76,12.61v29.56h-14.78Z"/>
    <path class="st3" d="M546.86,191.28c-3.83,0-6.94-1.19-9.32-3.58s-3.57-5.57-3.57-9.56v-32.84h-14.55v-12.2h14.55v-18.06h14.78v18.06h15.95v12.2h-15.95v30.26c0,2.35,1.09,3.52,3.28,3.52h11.26v12.2h-16.42Z"/>
    <path class="st3" d="M577.6,191.28v-82.1h33.78c5.16,0,9.72,1.04,13.66,3.11,3.95,2.07,7.04,4.98,9.27,8.74,2.23,3.75,3.34,8.21,3.34,13.37v1.64c0,5.08-1.15,9.52-3.46,13.31-2.31,3.79-5.43,6.72-9.38,8.79-3.95,2.07-8.42,3.11-13.43,3.11h-18.3v30.03h-15.48ZM593.08,147.18h16.77c3.67,0,6.64-1.01,8.91-3.05,2.26-2.03,3.4-4.81,3.4-8.33v-1.17c0-3.52-1.14-6.29-3.4-8.33-2.27-2.03-5.24-3.05-8.91-3.05h-16.77v23.93Z"/>
    <path class="st3" d="M675.18,192.92c-5.79,0-10.99-1.17-15.6-3.52s-8.25-5.75-10.91-10.2c-2.66-4.46-3.99-9.81-3.99-16.07v-1.87c0-6.26,1.33-11.61,3.99-16.07,2.66-4.46,6.29-7.86,10.91-10.2s9.81-3.52,15.6-3.52,10.98,1.17,15.6,3.52,8.25,5.75,10.91,10.2c2.66,4.46,3.99,9.82,3.99,16.07v1.87c0,6.26-1.33,11.61-3.99,16.07-2.66,4.46-6.3,7.86-10.91,10.2s-9.81,3.52-15.6,3.52ZM675.18,179.79c4.53,0,8.28-1.47,11.26-4.4,2.97-2.93,4.46-7.13,4.46-12.61v-1.17c0-5.47-1.47-9.68-4.4-12.61-2.93-2.93-6.7-4.4-11.32-4.4s-8.29,1.47-11.26,4.4c-2.97,2.93-4.46,7.14-4.46,12.61v1.17c0,5.47,1.49,9.68,4.46,12.61,2.97,2.93,6.73,4.4,11.26,4.4Z"/>
    <path class="st3" d="M723.74,191.28l-8.21-58.18h14.66l5.16,48.21h2.11l7.51-48.21h23.69l7.51,48.21h2.11l5.16-48.21h14.66l-8.21,58.18h-24.52l-7.51-48.21h-2.11l-7.51,48.21h-24.51Z"/>
    <path class="st3" d="M837.28,192.92c-5.79,0-10.89-1.23-15.31-3.7-4.42-2.46-7.86-5.94-10.33-10.44-2.46-4.5-3.69-9.79-3.69-15.89v-1.41c0-6.1,1.21-11.39,3.64-15.89,2.42-4.5,5.82-7.97,10.2-10.44,4.38-2.46,9.46-3.7,15.25-3.7s10.67,1.27,14.9,3.81c4.22,2.54,7.51,6.06,9.85,10.55,2.35,4.5,3.52,9.72,3.52,15.66v5.05h-42.34c.16,3.99,1.64,7.23,4.46,9.73,2.81,2.51,6.26,3.76,10.32,3.76s7.2-.9,9.15-2.7c1.96-1.8,3.44-3.79,4.46-5.98l12.08,6.33c-1.09,2.03-2.67,4.24-4.75,6.62-2.08,2.39-4.83,4.42-8.27,6.1-3.44,1.68-7.82,2.52-13.13,2.52ZM823.09,155.51h27.21c-.31-3.36-1.67-6.06-4.05-8.09-2.39-2.03-5.49-3.05-9.33-3.05s-7.16,1.02-9.5,3.05c-2.35,2.03-3.79,4.73-4.34,8.09Z"/>
    <path class="st3" d="M878.45,191.28v-58.18h14.54v6.57h2.11c.86-2.35,2.29-4.07,4.28-5.16,1.99-1.09,4.32-1.64,6.98-1.64h7.03v13.14h-7.27c-3.76,0-6.84,1-9.27,2.99-2.42,1.99-3.64,5.06-3.64,9.21v33.07h-14.78Z"/>
  </g>
</svg>