<?xml version="1.0" encoding="UTF-8"?>
<svg id="Capa_1" xmlns="http://www.w3.org/2000/svg" version="1.1" viewBox="0 0 953.95 184.87">
  <!-- Generator: Adobe Illustrator 30.2.1, SVG Export Plug-In . SVG Version: 2.1.1 Build 1)  -->
  <defs>
    <style>
      .st0 {
        isolation: isolate;
      }

      .st1 {
        fill: #fff;
      }
    </style>
  </defs>
  <g id="Capa_2">
    <g id="Capa_1-2">
      <polygon class="st1" points="24.33 125.57 0 125.57 0 71.05 0 40.43 0 7.45 24.33 29.73 59.73 62.19 95.15 29.73 119.48 7.45 119.48 125.57 95.15 125.57 95.15 62.72 59.73 95.16 24.33 62.72 24.33 93.34 24.33 125.57"/>
      <polygon class="st1" points="153.57 125.57 127.67 125.57 170.76 7.18 196.66 7.18 239.75 125.57 213.85 125.57 183.72 42.75 153.57 125.57"/>
      <path class="st1" d="M317.05,101.15v24.34h-25.38c-32.65,0-59.11-26.47-59.11-59.11s26.47-59.11,59.11-59.11h25.38v24.34h-25.38c-19.21,0-34.78,15.57-34.78,34.78s15.57,34.78,34.78,34.78h25.38Z"/>
      <path class="st1" d="M384.43,61.31c8.16-.21,14.6-7,14.39-15.16-.2-7.86-6.53-14.18-14.39-14.39h-41.49V7.45h41.49c21.58.04,39.04,17.57,39,39.15-.03,15.03-8.67,28.71-22.23,35.18-5.24,2.51-10.97,3.8-16.77,3.8h-17.16v39.99h-24.33V61.31h41.49Z"/>
      <path class="st1" d="M553.97,66.33c0,34.07-27.62,61.7-61.7,61.7s-61.7-27.62-61.7-61.7,27.62-61.7,61.7-61.7c0,0,0,0,.01,0,34.07,0,61.69,27.62,61.69,61.69h0M492.28,103.68c20.63,0,37.36-16.73,37.36-37.36s-16.73-37.36-37.36-37.36c-20.63,0-37.36,16.73-37.36,37.36h0c0,20.63,16.71,37.36,37.33,37.36,0,0,.02,0,.03,0"/>
      <path class="st1" d="M668.82,125.57h-25.9l-12.94-35.57-12.95,35.57h-25.9l-43.08-118.38h25.9l30.14,82.82,12.94-35.58-17.19-47.24h25.9l15.03,41.4,15.03,41.41,13.03,35.58ZM680.84,92.5l31.06-85.35h-25.89l-18.12,49.8,12.95,35.55Z"/>
      <path class="st1" d="M854.62,61.25h41.52c8.16.21,14.96-6.23,15.17-14.4.21-8.16-6.23-14.96-14.4-15.17-.26,0-.51,0-.77,0h-41.52V7.35h41.52c21.58-.1,39.15,17.31,39.25,38.89.07,15.2-8.68,29.07-22.44,35.54l26.19,43.78h-28.35l-23.91-39.98h-32.26v-24.34Z"/>
      <path class="st1" d="M715.58,36.64V7.45h81.87c5.13,0,9.29,4.15,9.3,9.28v19.91h-91.16Z"/>
      <path class="st1" d="M816.35,4.79h0c15.45,0,27.97,12.52,27.97,27.97v50.66c-15.45,0-27.97-12.52-27.97-27.97V4.79Z"/>
      <path class="st1" d="M713.56,125.62v-29.19h118.73v19.29c0,5.47-4.43,9.9-9.9,9.9h-108.84Z"/>
      <path class="st1" d="M713.56,81.12v-29.19h81.87c5.14,0,9.3,4.17,9.3,9.31v10.58c0,5.13-4.16,9.3-9.3,9.3h-81.87Z"/>
      <g class="st0">
        <g class="st0">
          <path class="st1" d="M646.52,150.37v29.4h-2.23v-29.4h2.23Z"/>
          <path class="st1" d="M676.09,152.47h-9.24v27.3h-2.27v-27.3h-9.24v-2.1h20.75v2.1Z"/>
        </g>
        <g class="st0">
          <path class="st1" d="M698.57,173.3l1.93-1.13c1.01,3.53,3.99,5.92,8.82,5.92s7.39-2.52,7.39-5.88c0-3.53-3.11-4.87-7.6-6.3-4.91-1.6-9.32-2.98-9.32-8.11,0-4.83,3.91-7.9,8.9-7.9s8.02,2.77,9.45,6.17l-1.89,1.05c-1.09-2.65-3.36-5.08-7.56-5.08s-6.64,2.4-6.64,5.67c0,3.53,2.98,4.62,7.18,6,5.21,1.72,9.75,3.36,9.75,8.44s-3.82,8.07-9.66,8.07c-5.5,0-9.41-2.77-10.75-6.93Z"/>
        </g>
        <g class="st0">
          <path class="st1" d="M726.77,165.07c0-8.4,6.68-15.16,15.16-15.16s15.16,6.76,15.16,15.16-6.68,15.17-15.16,15.17-15.16-6.76-15.16-15.17ZM754.87,165.07c0-7.22-5.67-13.02-12.94-13.02s-12.94,5.8-12.94,13.02,5.67,13.02,12.94,13.02,12.94-5.79,12.94-13.02Z"/>
        </g>
        <g class="st0">
          <path class="st1" d="M783.01,177.67v2.1h-16.09v-29.4h2.22v27.3h13.86Z"/>
        </g>
        <g class="st0">
          <path class="st1" d="M790.95,169.94v-19.57h2.23v19.57c0,4.79,2.98,8.15,8.53,8.15s8.57-3.36,8.57-8.15v-19.57h2.23v19.57c0,6.22-4.33,10.29-10.79,10.29s-10.75-4.07-10.75-10.29Z"/>
          <path class="st1" d="M841.66,152.47h-9.24v27.3h-2.27v-27.3h-9.24v-2.1h20.75v2.1Z"/>
          <path class="st1" d="M852.71,150.37v29.4h-2.22v-29.4h2.22Z"/>
          <path class="st1" d="M862.54,165.07c0-8.4,6.68-15.16,15.16-15.16s15.16,6.76,15.16,15.16-6.68,15.17-15.16,15.17-15.16-6.76-15.16-15.17ZM890.64,165.07c0-7.22-5.67-13.02-12.94-13.02s-12.94,5.8-12.94,13.02,5.67,13.02,12.94,13.02,12.94-5.79,12.94-13.02Z"/>
        </g>
        <g class="st0">
          <path class="st1" d="M924.25,150.37v29.4h-1.97l-17.35-25.29v25.29h-2.23v-29.4h1.93l17.39,25.29v-25.29h2.23Z"/>
        </g>
        <g class="st0">
          <path class="st1" d="M933.54,173.3l1.93-1.13c1.01,3.53,3.99,5.92,8.82,5.92s7.39-2.52,7.39-5.88c0-3.53-3.11-4.87-7.6-6.3-4.91-1.6-9.32-2.98-9.32-8.11,0-4.83,3.91-7.9,8.9-7.9s8.02,2.77,9.45,6.17l-1.89,1.05c-1.09-2.65-3.36-5.08-7.56-5.08s-6.64,2.4-6.64,5.67c0,3.53,2.98,4.62,7.18,6,5.21,1.72,9.75,3.36,9.75,8.44s-3.82,8.07-9.66,8.07c-5.5,0-9.41-2.77-10.75-6.93Z"/>
        </g>
      </g>
    </g>
  </g>
</svg>