<?xml version="1.0" encoding="UTF-8"?>
<svg id="Capa_1" xmlns="http://www.w3.org/2000/svg" version="1.1" viewBox="0 0 953.95 184.87">
  <!-- Generator: Adobe Illustrator 30.2.1, SVG Export Plug-In . SVG Version: 2.1.1 Build 1)  -->
  <defs>
    <style>
      .st0, .st1, .st2, .st3, .st4, .st5 {
        fill: #00464c;
      }

      .st0, .st2, .st6, .st3, .st4, .st5 {
        isolation: isolate;
      }

      .st0, .st2, .st3, .st4, .st5 {
        font-size: 41.93px;
      }

      .st2, .st3, .st4, .st5, .st7 {
        font-family: MyriadPro-Regular, 'Myriad Pro';
      }

      .st8 {
        fill: #343856;
      }

      .st9 {
        fill: #48627c;
      }

      .st3, .st10 {
        letter-spacing: .1em;
      }

      .st4 {
        letter-spacing: .09em;
      }

      .st5 {
        letter-spacing: .09em;
      }

      .st7 {
        letter-spacing: .1em;
      }

      .st10 {
        font-family: ArialHebrew-Light, 'Arial Hebrew';
        font-weight: 300;
      }
    </style>
  </defs>
  <g id="Capa_2">
    <g id="Capa_1-2">
      <polygon class="st9" points="24.57 121.42 0 121.42 0 66.35 0 35.41 0 2.1 24.57 24.61 60.34 57.39 96.12 24.61 120.7 2.1 120.7 121.42 96.12 121.42 96.12 57.93 60.34 90.7 24.57 57.93 24.57 88.86 24.57 121.42"/>
      <polygon class="st9" points="155.14 121.42 128.98 121.42 172.51 1.82 198.67 1.82 242.21 121.42 216.04 121.42 185.6 37.75 155.14 121.42"/>
      <path class="st9" d="M320.29,96.75v24.59h-25.64c-32.98,0-59.72-26.74-59.72-59.72S261.68,1.9,294.66,1.9h25.64v24.59h-25.64c-19.4,0-35.13,15.73-35.13,35.13s15.73,35.13,35.13,35.13h25.64Z"/>
      <path class="st9" d="M388.36,56.51c8.24-.21,14.75-7.07,14.54-15.31-.21-7.94-6.59-14.33-14.54-14.54h-41.91V2.1h41.91c21.8.04,39.44,17.75,39.4,39.55-.03,15.18-8.76,29-22.46,35.54-5.29,2.53-11.08,3.84-16.94,3.84h-17.34v40.39h-24.57V56.51h41.91Z"/>
      <path class="st9" d="M559.64,61.58c0,34.42-27.91,62.33-62.33,62.33s-62.33-27.91-62.33-62.33S462.89-.75,497.31-.75c0,0,0,0,.01,0,34.42,0,62.32,27.9,62.32,62.32h0M497.32,99.31c20.84,0,37.74-16.9,37.74-37.74s-16.9-37.74-37.74-37.74c-20.84,0-37.74,16.9-37.74,37.74h0c0,20.84,16.88,37.74,37.71,37.74.01,0,.02,0,.03,0"/>
      <path class="st9" d="M675.66,121.42h-26.16l-13.08-35.93-13.09,35.93h-26.16L553.65,1.82h26.16l30.45,83.66,13.08-35.94-17.37-47.72h26.16l15.18,41.82,15.18,41.83,13.17,35.94ZM687.81,88.02L719.18,1.79h-26.15l-18.31,50.31,13.09,35.91Z"/>
      <path class="st9" d="M863.36,56.45h41.94c8.25.21,15.11-6.3,15.32-14.55.21-8.25-6.3-15.11-14.55-15.32-.26,0-.52,0-.78,0h-41.94V1.99h41.94c21.8-.1,39.55,17.49,39.65,39.29.07,15.36-8.77,29.36-22.67,35.9l26.46,44.23h-28.64l-24.15-40.38h-32.59v-24.59Z"/>
      <path class="st8" d="M722.9,31.58V2.1h82.7c5.18,0,9.39,4.19,9.39,9.37v20.11h-92.1Z"/>
      <path class="st8" d="M824.7-.6h0c15.61,0,28.26,12.65,28.26,28.26v51.17c-15.61,0-28.26-12.65-28.26-28.26V-.6Z"/>
      <path class="st1" d="M712.21,120.75v-29.13h118.51v19.25c0,5.46-4.42,9.88-9.88,9.88h-108.63Z"/>
      <path class="st9" d="M712.21,76.34v-29.13h81.71c5.13,0,9.28,4.16,9.28,9.29v10.56c0,5.13-4.15,9.28-9.28,9.28h-81.71Z"/>
      <g class="st6">
        <text class="st0" transform="translate(639.43 174.81)"><tspan class="st7" x="0" y="0">IT</tspan><tspan class="st10" x="39.25" y="0"> </tspan></text>
        <text class="st4" transform="translate(695.36 174.81)"><tspan x="0" y="0">S</tspan></text>
        <text class="st3" transform="translate(723.42 174.81)"><tspan x="0" y="0">O</tspan></text>
        <text class="st4" transform="translate(761.82 174.81)"><tspan x="0" y="0">L</tspan></text>
        <text class="st3" transform="translate(786.23 174.81)"><tspan x="0" y="0">UTIO</tspan></text>
        <text class="st5" transform="translate(897.34 174.81)"><tspan x="0" y="0">N</tspan></text>
        <text class="st2" transform="translate(929.88 174.81)"><tspan x="0" y="0">S</tspan></text>
      </g>
    </g>
  </g>
</svg>