<?xml version="1.0" encoding="UTF-8"?>
<svg id="Capa_1" xmlns="http://www.w3.org/2000/svg" version="1.1" viewBox="0 0 1734.36 184.87">
  <!-- Generator: Adobe Illustrator 30.2.1, SVG Export Plug-In . SVG Version: 2.1.1 Build 1)  -->
  <defs>
    <style>
      .st0 {
        fill: #00464c;
      }

      .st1 {
        fill: #343856;
      }

      .st2 {
        isolation: isolate;
      }

      .st3 {
        fill: #47627c;
      }
    </style>
  </defs>
  <g id="Capa_2">
    <g id="Capa_1-2">
      <polygon class="st3" points="25.02 124.39 0 124.39 0 68.32 0 36.81 0 2.9 25.02 25.82 61.44 59.2 97.87 25.82 122.9 2.9 122.9 124.39 97.87 124.39 97.87 59.74 61.44 93.11 25.02 59.74 25.02 91.24 25.02 124.39"/>
      <polygon class="st3" points="157.97 124.39 131.33 124.39 175.65 2.62 202.29 2.62 246.62 124.39 219.98 124.39 188.98 39.2 157.97 124.39"/>
      <path class="st3" d="M326.13,99.28v25.03h-26.1c-33.58,0-60.8-27.22-60.8-60.8S266.44,2.7,300.02,2.7h26.1v25.03h-26.1c-19.76,0-35.77,16.02-35.77,35.77s16.02,35.77,35.77,35.77h26.1Z"/>
      <path class="st3" d="M395.43,58.3c8.39-.22,15.02-7.2,14.8-15.59-.21-8.09-6.72-14.59-14.8-14.8h-42.68V2.9h42.68c22.2.04,40.16,18.07,40.12,40.27-.03,15.46-8.92,29.53-22.87,36.19-5.39,2.58-11.28,3.91-17.25,3.91h-17.65v41.13h-25.02V58.3h42.68Z"/>
      <path class="st3" d="M569.83,63.46c0,35.05-28.41,63.46-63.46,63.46s-63.46-28.41-63.46-63.46S471.32,0,506.37,0c0,0,0,0,.01,0,35.04,0,63.45,28.41,63.45,63.45h0M506.38,101.88c21.22,0,38.43-17.21,38.43-38.43s-17.21-38.43-38.43-38.43c-21.22,0-38.43,17.21-38.43,38.43h0c0,21.22,17.19,38.42,38.4,38.43.01,0,.02,0,.03,0"/>
      <path class="st3" d="M687.97,124.39h-26.64l-13.32-36.59-13.33,36.59h-26.64L563.73,2.62h26.64l31,85.19,13.32-36.6-17.68-48.59h26.64l15.46,42.58,15.46,42.59,13.41,36.6ZM700.33,90.38l31.95-87.8h-26.63l-18.64,51.23,13.33,36.57Z"/>
      <path class="st3" d="M879.09,58.24h42.71c8.4.22,15.38-6.41,15.6-14.81.22-8.4-6.41-15.38-14.81-15.6-.26,0-.53,0-.79,0h-42.71V2.79h42.71c22.2-.1,40.27,17.81,40.38,40.01.07,15.64-8.93,29.9-23.08,36.55l26.94,45.04h-29.17l-24.59-41.12h-33.18v-25.03Z"/>
      <path class="st1" d="M736.06,32.92V2.9h84.21c5.28,0,9.56,4.27,9.56,9.54v20.48h-93.77Z"/>
      <path class="st1" d="M839.72.15h0c15.89,0,28.77,12.88,28.77,28.77v52.11c-15.89,0-28.77-12.88-28.77-28.77V.15Z"/>
      <path class="st0" d="M733.99,124.44v-30.02h122.13v19.84c0,5.62-4.56,10.18-10.18,10.18h-111.95Z"/>
      <path class="st3" d="M733.99,78.67v-30.02h84.21c5.28,0,9.56,4.29,9.56,9.57v10.88c0,5.28-4.28,9.56-9.56,9.56h-84.21Z"/>
      <g class="st2">
        <g class="st2">
          <path class="st0" d="M665.03,149.9v30.25h-2.29v-30.25h2.29Z"/>
          <path class="st0" d="M695.45,152.06h-9.51v28.09h-2.33v-28.09h-9.5v-2.16h21.34v2.16Z"/>
        </g>
        <g class="st2">
          <path class="st0" d="M718.57,173.49l1.99-1.17c1.04,3.63,4.11,6.09,9.07,6.09s7.6-2.59,7.6-6.05c0-3.63-3.2-5.01-7.82-6.48-5.06-1.64-9.59-3.07-9.59-8.34,0-4.97,4.02-8.12,9.16-8.12s8.25,2.85,9.72,6.35l-1.94,1.08c-1.12-2.72-3.46-5.23-7.78-5.23s-6.83,2.46-6.83,5.84c0,3.63,3.07,4.75,7.39,6.18,5.36,1.77,10.02,3.46,10.02,8.69s-3.93,8.3-9.94,8.3c-5.66,0-9.68-2.85-11.06-7.13Z"/>
        </g>
        <g class="st2">
          <path class="st0" d="M747.57,165.02c0-8.64,6.87-15.6,15.6-15.6s15.6,6.96,15.6,15.6-6.87,15.6-15.6,15.6-15.6-6.96-15.6-15.6ZM776.48,165.02c0-7.43-5.83-13.39-13.31-13.39s-13.31,5.96-13.31,13.39,5.83,13.39,13.31,13.39,13.31-5.96,13.31-13.39Z"/>
        </g>
        <g class="st2">
          <path class="st0" d="M805.43,177.99v2.16h-16.55v-30.25h2.29v28.09h14.26Z"/>
        </g>
        <g class="st2">
          <path class="st0" d="M813.6,170.04v-20.13h2.29v20.13c0,4.93,3.07,8.38,8.77,8.38s8.81-3.45,8.81-8.38v-20.13h2.29v20.13c0,6.4-4.45,10.59-11.1,10.59s-11.06-4.19-11.06-10.59Z"/>
          <path class="st0" d="M865.75,152.06h-9.51v28.09h-2.33v-28.09h-9.5v-2.16h21.34v2.16Z"/>
          <path class="st0" d="M877.12,149.9v30.25h-2.29v-30.25h2.29Z"/>
          <path class="st0" d="M887.23,165.02c0-8.64,6.87-15.6,15.6-15.6s15.6,6.96,15.6,15.6-6.87,15.6-15.6,15.6-15.6-6.96-15.6-15.6ZM916.14,165.02c0-7.43-5.83-13.39-13.31-13.39s-13.31,5.96-13.31,13.39,5.83,13.39,13.31,13.39,13.31-5.96,13.31-13.39Z"/>
        </g>
        <g class="st2">
          <path class="st0" d="M950.71,149.9v30.25h-2.03l-17.84-26.01v26.01h-2.29v-30.25h1.99l17.89,26.01v-26.01h2.29Z"/>
        </g>
        <g class="st2">
          <path class="st0" d="M960.26,173.49l1.99-1.17c1.04,3.63,4.11,6.09,9.07,6.09s7.6-2.59,7.6-6.05c0-3.63-3.2-5.01-7.82-6.48-5.06-1.64-9.59-3.07-9.59-8.34,0-4.97,4.02-8.12,9.16-8.12s8.25,2.85,9.72,6.35l-1.94,1.08c-1.12-2.72-3.46-5.23-7.78-5.23s-6.83,2.46-6.83,5.84c0,3.63,3.07,4.75,7.39,6.18,5.36,1.77,10.02,3.46,10.02,8.69s-3.93,8.3-9.94,8.3c-5.66,0-9.68-2.85-11.06-7.13Z"/>
        </g>
      </g>
    </g>
  </g>
  <g>
    <g>
      <path d="M1445.64,127.29h-11.57l-2.78,8.2h-4.9l10.96-30.35h5.09l10.96,30.35h-4.98l-2.78-8.2ZM1435.27,123.5h9.17l-4.52-13.31h-.13l-4.52,13.31Z"/>
      <path d="M1475.14,135.49h-4.35v-3.81h-.1c-1.26,2.65-3.47,4.06-6.86,4.06-4.82,0-7.76-3.11-7.76-8.18v-14.2h4.54v13.31c0,3.37,1.6,5.15,4.73,5.15s5.26-2.27,5.26-5.72v-12.75h4.54v22.13Z"/>
      <path d="M1486.16,108.13v5.24h4.21v3.6h-4.21v12.2c0,1.89.84,2.78,2.69,2.78.46,0,1.2-.06,1.49-.11v3.58c-.5.13-1.51.21-2.52.21-4.48,0-6.23-1.68-6.23-5.97v-12.68h-3.22v-3.6h3.22v-5.24h4.56Z"/>
      <path d="M1494.9,105.14h4.5v11.99h.11c1.32-2.65,3.62-4.02,7-4.02,4.86,0,7.76,3.24,7.76,8.24v14.13h-4.56v-13.23c0-3.26-1.64-5.24-4.84-5.24-3.37,0-5.43,2.31-5.43,5.83v12.64h-4.54v-30.35Z"/>
      <path d="M1518.31,124.43c0-6.96,4.1-11.34,10.49-11.34s10.49,4.37,10.49,11.34-4.06,11.34-10.49,11.34-10.49-4.35-10.49-11.34ZM1534.67,124.43c0-4.77-2.19-7.59-5.87-7.59s-5.87,2.84-5.87,7.59,2.19,7.59,5.87,7.59,5.87-2.8,5.87-7.59Z"/>
      <path d="M1543.46,113.37h4.33v3.77h.1c.69-2.5,2.71-4,5.32-4,.65,0,1.2.08,1.56.17v4.25c-.36-.15-1.16-.27-2.04-.27-2.92,0-4.73,1.98-4.73,5.09v13.12h-4.54v-22.13Z"/>
      <path d="M1558.03,107.54c0-1.45,1.18-2.61,2.63-2.61s2.65,1.16,2.65,2.61-1.18,2.59-2.65,2.59-2.63-1.16-2.63-2.59ZM1558.39,113.37h4.54v22.13h-4.54v-22.13Z"/>
      <path d="M1567.76,132.57l11.8-15.5v-.08h-11.71v-3.62h16.93v3.11l-11.5,15.31v.08h11.63v3.62h-17.14v-2.92Z"/>
      <path d="M1607.89,128.99c-.61,4.02-4.52,6.77-9.53,6.77-6.44,0-10.43-4.31-10.43-11.23s4.02-11.44,10.24-11.44,9.97,4.21,9.97,10.92v1.56h-15.63v.27c0,3.79,2.38,6.27,5.95,6.27,2.52,0,4.5-1.2,5.11-3.11h4.31ZM1592.53,122.39h11.06c-.11-3.39-2.27-5.62-5.43-5.62s-5.41,2.27-5.64,5.62Z"/>
      <path d="M1611.31,124.43c0-6.84,3.76-11.29,9.25-11.29,3.18,0,5.68,1.47,6.94,3.91h.08v-11.9h4.56v30.35h-4.42v-3.77h-.08c-1.3,2.52-3.83,4-7.05,4-5.53,0-9.3-4.46-9.3-11.29ZM1615.96,124.43c0,4.54,2.31,7.45,5.85,7.45s5.83-2.94,5.83-7.45-2.33-7.42-5.83-7.42-5.85,2.92-5.85,7.42Z"/>
      <path d="M1431.95,177.71c.34,3.01,3.26,4.99,7.25,4.99s6.58-1.98,6.58-4.69c0-2.36-1.66-3.76-5.59-4.73l-3.93-.95c-5.57-1.35-8.16-3.95-8.16-8.18,0-5.24,4.56-8.83,11.04-8.83s10.81,3.6,10.96,8.83h-4.59c-.27-3.03-2.78-4.86-6.43-4.86s-6.16,1.85-6.16,4.54c0,2.14,1.6,3.41,5.51,4.37l3.35.82c6.23,1.47,8.81,3.97,8.81,8.41,0,5.68-4.52,9.23-11.72,9.23-6.73,0-11.27-3.47-11.57-8.96h4.65Z"/>
      <path d="M1473.67,179.67c-.61,4.02-4.52,6.77-9.53,6.77-6.44,0-10.43-4.31-10.43-11.23s4.02-11.44,10.24-11.44,9.97,4.21,9.97,10.92v1.56h-15.63v.27c0,3.79,2.38,6.27,5.95,6.27,2.52,0,4.5-1.2,5.11-3.11h4.31ZM1458.31,173.06h11.06c-.11-3.39-2.27-5.62-5.43-5.62s-5.41,2.27-5.64,5.62Z"/>
      <path d="M1478.08,164.04h4.33v3.76h.11c.69-2.5,2.71-4,5.32-4,.65,0,1.2.08,1.56.17v4.25c-.36-.15-1.16-.27-2.04-.27-2.92,0-4.73,1.98-4.73,5.09v13.12h-4.54v-22.13Z"/>
      <path d="M1504.12,186.17h-4.88l-7.97-22.13h4.84l5.55,17.69h.08l5.55-17.69h4.75l-7.93,22.13Z"/>
      <path d="M1515.09,158.21c0-1.45,1.18-2.61,2.63-2.61s2.65,1.16,2.65,2.61-1.18,2.59-2.65,2.59-2.63-1.16-2.63-2.59ZM1515.45,164.04h4.54v22.13h-4.54v-22.13Z"/>
      <path d="M1539.73,171.65c-.4-2.33-2.23-4.08-5.22-4.08-3.49,0-5.8,2.92-5.8,7.53s2.33,7.55,5.85,7.55c2.82,0,4.67-1.41,5.17-3.98h4.37c-.5,4.65-4.23,7.76-9.59,7.76-6.31,0-10.43-4.31-10.43-11.34s4.12-11.34,10.39-11.34c5.68,0,9.21,3.58,9.59,7.89h-4.33Z"/>
      <path d="M1566.94,179.67c-.61,4.02-4.52,6.77-9.53,6.77-6.43,0-10.43-4.31-10.43-11.23s4.02-11.44,10.24-11.44,9.97,4.21,9.97,10.92v1.56h-15.63v.27c0,3.79,2.38,6.27,5.95,6.27,2.52,0,4.5-1.2,5.11-3.11h4.31ZM1551.59,173.06h11.06c-.11-3.39-2.27-5.62-5.43-5.62s-5.4,2.27-5.64,5.62Z"/>
      <path d="M1592.66,155.82c5.89,0,9.99,4.06,9.99,9.97s-4.18,10.01-10.14,10.01h-6.52v10.37h-4.71v-30.35h11.38ZM1585.99,171.84h5.41c4.1,0,6.43-2.21,6.43-6.04s-2.33-6.01-6.42-6.01h-5.43v12.05Z"/>
      <path d="M1606.53,164.04h4.33v3.76h.1c.69-2.5,2.71-4,5.32-4,.65,0,1.2.08,1.56.17v4.25c-.36-.15-1.16-.27-2.04-.27-2.92,0-4.73,1.98-4.73,5.09v13.12h-4.54v-22.13Z"/>
      <path d="M1619.37,175.1c0-6.96,4.1-11.34,10.49-11.34s10.49,4.37,10.49,11.34-4.06,11.34-10.49,11.34-10.49-4.35-10.49-11.34ZM1635.74,175.1c0-4.78-2.19-7.59-5.87-7.59s-5.87,2.84-5.87,7.59,2.19,7.59,5.87,7.59,5.87-2.8,5.87-7.59Z"/>
      <path d="M1654.89,186.17h-4.88l-7.97-22.13h4.84l5.55,17.69h.08l5.55-17.69h4.75l-7.93,22.13Z"/>
      <path d="M1665.87,158.21c0-1.45,1.18-2.61,2.63-2.61s2.65,1.16,2.65,2.61-1.18,2.59-2.65,2.59-2.63-1.16-2.63-2.59ZM1666.22,164.04h4.54v22.13h-4.54v-22.13Z"/>
      <path d="M1675.07,175.1c0-6.84,3.76-11.29,9.25-11.29,3.18,0,5.68,1.47,6.94,3.91h.09v-11.9h4.56v30.35h-4.42v-3.76h-.08c-1.3,2.52-3.83,4-7.05,4-5.53,0-9.3-4.46-9.3-11.29ZM1679.72,175.1c0,4.54,2.31,7.44,5.85,7.44s5.83-2.94,5.83-7.44-2.33-7.42-5.83-7.42-5.85,2.92-5.85,7.42Z"/>
      <path d="M1720.18,179.67c-.61,4.02-4.52,6.77-9.53,6.77-6.43,0-10.43-4.31-10.43-11.23s4.02-11.44,10.24-11.44,9.97,4.21,9.97,10.92v1.56h-15.63v.27c0,3.79,2.38,6.27,5.95,6.27,2.52,0,4.5-1.2,5.11-3.11h4.31ZM1704.83,173.06h11.06c-.11-3.39-2.27-5.62-5.43-5.62s-5.4,2.27-5.64,5.62Z"/>
      <path d="M1724.34,164.04h4.33v3.76h.11c.69-2.5,2.71-4,5.32-4,.65,0,1.2.08,1.56.17v4.25c-.36-.15-1.16-.27-2.04-.27-2.92,0-4.73,1.98-4.73,5.09v13.12h-4.54v-22.13Z"/>
    </g>
    <g>
      <path d="M1159.94,156.51c-.14.39-2.33,7.97-7.69,15.79-4.63,6.77-9.43,13.51-17,13.65-7.43.14-9.83-4.41-18.32-4.41s-11.16,4.28-18.19,4.55c-7.3.27-12.87-7.32-17.53-14.06-9.54-13.79-16.82-38.96-7.03-55.94,4.85-8.44,13.54-13.79,22.97-13.92,7.18-.13,13.94,4.82,18.33,4.82s12.6-5.96,21.25-5.09c3.62.15,13.78,1.46,20.31,11.01-.52.33-12.13,7.08-12,21.13.15,16.81,14.74,22.4,14.91,22.47h0ZM1131.05,92.79c3.89-4.7,6.49-11.23,5.78-17.73-5.59.21-12.35,3.72-16.35,8.41-3.6,4.15-6.75,10.8-5.89,17.17,6.23.48,12.6-3.17,16.47-7.85h0Z"/>
      <g>
        <path d="M1192.16,101.67h12.61c5.6,0,9.28,3.13,9.28,7.9v.04c0,3.33-2.52,6.41-5.84,6.89v.09c4.49.46,7.4,3.55,7.4,7.71v.04c0,5.54-4.05,8.91-10.77,8.91h-12.67v-31.59ZM1197.07,105.68v9.46h5.43c4.33,0,6.68-1.75,6.68-4.93v-.04c0-2.89-2.03-4.49-5.58-4.49h-6.52ZM1197.07,118.92v10.33h6.76c4.4,0,6.76-1.77,6.76-5.14v-.04c0-3.39-2.41-5.14-7.09-5.14h-6.44Z"/>
        <path d="M1219.15,125.16v-14.93h4.73v14.01c0,3.48,1.62,5.41,4.9,5.41s5.47-2.39,5.47-5.98v-13.44h4.75v23.03h-4.75v-3.46h-.11c-1.2,2.32-3.55,3.92-7.05,3.92-5.06,0-7.95-3.26-7.95-8.56h0Z"/>
        <path d="M1243.13,126.67l-.02-.2h4.69l.04.22c.44,2.12,2.01,3.37,4.93,3.37s4.55-1.18,4.55-3.04v-.02c0-1.49-.83-2.34-3.31-2.93l-3.77-.85c-4.38-1.01-6.55-3.11-6.55-6.46v-.02c0-4.12,3.59-6.94,8.89-6.94s8.73,3.04,8.97,6.96l.02.26h-4.44l-.02-.15c-.28-2.01-1.86-3.41-4.53-3.41s-4.14,1.2-4.14,3.04v.02c0,1.42.94,2.39,3.41,2.98l3.74.85c4.71,1.1,6.5,2.96,6.5,6.26v.02c0,4.2-3.94,7.09-9.37,7.09-5.76,0-9.13-2.85-9.61-7.05h0Z"/>
        <path d="M1266.02,103.97c0-1.51,1.23-2.74,2.76-2.74s2.76,1.23,2.76,2.74-1.21,2.71-2.76,2.71-2.76-1.23-2.76-2.71ZM1266.41,110.23h4.73v23.03h-4.73v-23.03Z"/>
        <path d="M1276.47,110.23h4.73v3.48h.11c1.21-2.34,3.57-3.92,7.05-3.92,5.06,0,7.97,3.26,7.97,8.56v14.91h-4.75v-14.01c0-3.46-1.62-5.41-4.9-5.41s-5.47,2.41-5.47,6v13.42h-4.73v-23.03h0Z"/>
        <path d="M1300.29,121.83v-.02c0-7.2,4.16-12.02,10.61-12.02s10.42,4.64,10.42,11.56v1.6h-16.31c.09,4.36,2.47,6.89,6.24,6.89,2.8,0,4.66-1.45,5.25-3.17l.07-.18h4.49l-.04.24c-.75,3.66-4.29,6.98-9.87,6.98-6.76,0-10.86-4.62-10.86-11.89h0ZM1305.09,119.6h11.56c-.4-3.98-2.63-5.93-5.71-5.93s-5.43,2.08-5.84,5.93Z"/>
        <path d="M1324.22,126.67l-.02-.2h4.68l.04.22c.44,2.12,2.01,3.37,4.93,3.37s4.55-1.18,4.55-3.04v-.02c0-1.49-.83-2.34-3.31-2.93l-3.77-.85c-4.38-1.01-6.54-3.11-6.54-6.46v-.02c0-4.12,3.59-6.94,8.89-6.94s8.73,3.04,8.97,6.96l.02.26h-4.44l-.02-.15c-.28-2.01-1.86-3.41-4.53-3.41s-4.14,1.2-4.14,3.04v.02c0,1.42.94,2.39,3.41,2.98l3.74.85c4.71,1.1,6.5,2.96,6.5,6.26v.02c0,4.2-3.94,7.09-9.37,7.09-5.76,0-9.13-2.85-9.61-7.05h0Z"/>
        <path d="M1346.1,126.67l-.02-.2h4.69l.04.22c.44,2.12,2.01,3.37,4.93,3.37s4.55-1.18,4.55-3.04v-.02c0-1.49-.83-2.34-3.31-2.93l-3.77-.85c-4.38-1.01-6.55-3.11-6.55-6.46v-.02c0-4.12,3.59-6.94,8.89-6.94s8.73,3.04,8.97,6.96l.02.26h-4.44l-.02-.15c-.28-2.01-1.86-3.41-4.53-3.41s-4.14,1.2-4.14,3.04v.02c0,1.42.94,2.39,3.41,2.98l3.74.85c4.71,1.1,6.5,2.96,6.5,6.26v.02c0,4.2-3.94,7.09-9.37,7.09-5.76,0-9.13-2.85-9.61-7.05h0Z"/>
        <path d="M1192.16,154.41h11.75c6.2,0,10.49,4.16,10.49,10.35v.04c0,6.17-4.29,10.4-10.49,10.4h-6.85v10.79h-4.9v-31.59h0ZM1197.07,158.55v12.54h5.62c4.27,0,6.72-2.3,6.72-6.26v-.04c0-3.94-2.45-6.24-6.72-6.24h-5.62Z"/>
        <path d="M1215.84,179.45v-.04c0-4,3.11-6.46,8.56-6.78l6.26-.37v-1.73c0-2.54-1.64-4.07-4.57-4.07-2.74,0-4.42,1.29-4.82,3.13l-.04.2h-4.47l.02-.24c.33-3.96,3.77-7,9.43-7s9.19,2.98,9.19,7.59v15.87h-4.75v-3.63h-.09c-1.33,2.47-4,4.05-7.05,4.05-4.6,0-7.68-2.82-7.68-6.96h0ZM1224.81,182.62c3.33,0,5.84-2.26,5.84-5.25v-1.79l-5.62.35c-2.85.18-4.42,1.42-4.42,3.37v.04c0,2.01,1.66,3.28,4.2,3.28Z"/>
        <path d="M1240.43,162.97h4.73v3.94h.11c.74-2.69,2.67-4.38,5.3-4.38.68,0,1.27.11,1.64.18v4.4c-.37-.15-1.2-.26-2.12-.26-3.04,0-4.93,1.99-4.93,5.43v13.72h-4.73v-23.03h0Z"/>
        <path d="M1257.93,179.93v-13.2h-3.31v-3.77h3.31v-6h4.84v6h4.31v3.77h-4.31v12.91c0,2.34,1.05,3.04,3.04,3.04.5,0,.92-.04,1.27-.09v3.65c-.55.09-1.45.2-2.41.2-4.55,0-6.74-1.93-6.74-6.52h0Z"/>
        <path d="M1271.42,162.97h4.73v3.48h.11c1.2-2.34,3.57-3.92,7.05-3.92,5.06,0,7.97,3.26,7.97,8.56v14.91h-4.75v-14.01c0-3.46-1.62-5.41-4.9-5.41s-5.47,2.41-5.47,6v13.42h-4.73v-23.03h0Z"/>
        <path d="M1294.8,174.57v-.02c0-7.2,4.16-12.02,10.62-12.02s10.42,4.64,10.42,11.56v1.6h-16.31c.09,4.36,2.47,6.89,6.24,6.89,2.8,0,4.66-1.45,5.25-3.17l.07-.18h4.49l-.04.24c-.75,3.66-4.29,6.98-9.87,6.98-6.76,0-10.86-4.62-10.86-11.89h0ZM1299.59,172.34h11.56c-.4-3.98-2.63-5.93-5.71-5.93s-5.43,2.08-5.84,5.93Z"/>
        <path d="M1319.94,162.97h4.73v3.94h.11c.75-2.69,2.67-4.38,5.3-4.38.68,0,1.27.11,1.64.18v4.4c-.37-.15-1.2-.26-2.12-.26-3.04,0-4.92,1.99-4.92,5.43v13.72h-4.73v-23.03h0Z"/>
      </g>
    </g>
  </g>
</svg>